<svg width="60" height="60" viewBox="0 0 60 60" fill="none" xmlns="http://www.w3.org/2000/svg">
<path d="M57.4618 30.0006C57.4618 45.1431 45.1426 57.4619 30 57.4619C14.8574 57.4619 2.53817 45.1431 2.53817 30.0006C2.53817 14.8577 14.8574 2.53773 30 2.53773C45.1426 2.53773 57.4618 14.8577 57.4618 30.0006ZM51.2129 51.2134C56.8797 45.5466 60 38.0131 60 30.0006C60 21.9869 56.8797 14.453 51.2129 8.78664C45.5473 3.1211 38.0138 0 30 0C21.9862 0 14.4527 3.1211 8.78712 8.78664C3.12028 14.453 0 21.9869 0 30.0006C0 38.0143 3.12028 45.5466 8.78712 51.2134C14.4527 56.8802 21.9862 60 30 60C38.0138 60 45.5473 56.8802 51.2129 51.2134Z" fill="#BEB9B9"/>
</svg>
