<svg width="34" height="180" viewBox="0 0 34 180" fill="none" xmlns="http://www.w3.org/2000/svg">
<path d="M3.99762 157.845C2.69693 172.989 3.57216 170.892 10.108 170.677C12.3386 170.604 14.5794 170.629 16.8039 170.396C17.4462 170.331 18.5038 171.329 18.7388 168.55C14.3667 165.046 9.96215 161.491 5.53738 157.995C5.20714 157.736 4.7594 157.903 3.99762 157.845ZM26.4457 12.0848C20.8276 11.116 15.1183 10.1253 9.40298 9.15647C8.58245 9.01807 7.76395 8.89423 6.94342 8.85781C6.5443 8.85052 6.14518 9.0727 5.74606 9.17468C5.25374 9.3058 4.99846 9.81934 5.04101 10.7335C5.0714 11.4328 5.01467 12.3361 5.2274 12.7841C5.60626 13.5854 6.11884 14.4449 6.6537 14.678C12.6446 17.2603 18.6395 19.8062 24.6567 22.1809C26.3565 22.8547 26.8812 21.9114 26.9805 18.7901C27.0474 16.5975 27.2074 14.3612 26.4457 12.0848ZM4.48994 97.8948C4.54869 99.3371 4.55275 101.184 4.72495 102.994C4.8688 104.487 5.34086 105.653 6.25458 106.079C12.1989 108.85 18.137 111.691 24.0955 114.379C25.1166 114.835 25.4955 113.279 25.5745 111.721C25.6616 109.827 25.5542 107.853 24.4278 107.04C18.3396 102.641 12.4258 97.556 6.69422 91.805C5.64273 90.7524 4.78168 91.8524 4.64189 94.1907C4.57908 95.2833 4.54869 96.3905 4.48994 97.8948ZM4.80802 115.02C4.57908 116.896 4.40687 117.96 4.32989 119.041C4.25695 120.13 4.25695 121.241 4.25695 122.341C4.26708 126.734 4.75534 127.965 7.30202 129.065C12.675 131.385 17.9851 134.135 23.3236 136.691C23.7126 136.877 24.1279 136.924 24.5311 136.961C25.2787 137.016 25.6049 136.065 25.7447 134.994C26.2734 130.722 25.694 128.373 23.5566 127.338C19.1885 125.211 15.0555 122.032 10.8657 119.067C9.00386 117.745 7.38509 115.264 4.80802 115.02ZM5.54954 68.7281C5.274 69.1943 4.8222 69.5949 4.7594 70.1376C4.59529 71.5617 4.55882 73.055 4.55275 74.5192C4.54262 81.6324 4.58921 81.7999 8.17928 84.0581C11.2649 86.0067 14.3707 87.8423 17.4725 89.6962C19.4114 90.8617 21.3422 92.0745 23.3074 93.0252C23.7896 93.251 24.5412 92.8321 24.9464 92.2239C25.9898 90.6395 25.5947 85.4166 24.3184 84.5971C18.1208 80.6053 12.4582 74.7341 6.72664 69.0559C6.39843 68.739 5.94866 68.8301 5.54954 68.7281ZM4.52236 137.38C3.7079 139.281 3.90037 141.568 3.88822 143.739C3.86796 147.993 4.2063 148.794 6.47136 149.96C10.807 152.189 15.1588 154.341 19.5107 156.512C21.2895 157.408 23.0481 158.443 24.8532 159.105C25.6981 159.422 26.4355 158.574 26.5226 156.745C26.7678 151.741 26.0931 149.454 23.6903 148.485C17.8514 146.117 12.2961 142.37 6.88669 137.846C6.15126 137.23 5.37327 136.691 4.52236 137.38ZM4.72495 42.8249C4.6662 47.1226 4.65202 50.7612 4.55882 54.3961C4.47576 57.8744 5.42392 59.6736 7.20275 60.8027C12.598 64.2227 17.9385 67.8904 23.3175 71.3869C23.8564 71.7293 24.4906 71.62 25.07 71.722C25.9999 61.5129 25.9574 61.6696 21.3462 57.6777C17.669 54.4981 14.1175 50.845 10.4909 47.4504C8.89445 45.9571 7.52488 43.5897 4.72495 42.8249ZM25.7609 47.3557C26.0202 43.2364 26.2066 40.3627 26.3788 37.4927C26.5287 34.9286 25.8743 33.4936 24.5169 32.634C19.5269 29.5017 14.5105 26.4714 9.60558 22.9385C4.80194 19.4784 4.41295 18.7609 4.58314 29.8295C4.62973 32.5211 4.98428 34.6481 6.70435 35.6643C12.8816 39.3211 19.0123 43.2 25.7609 47.3557ZM15.0758 4.03176e-06C18.7692 0.411571 22.4625 0.801293 26.1539 1.26021C27.8193 1.46417 29.3286 2.38928 30.761 4.0829C32.6432 6.31192 33.6805 9.12005 33.5711 13.2394C33.3948 19.89 33.405 26.5661 33.0626 33.184C31.7558 58.275 31.7619 83.4243 31.8348 108.57C31.8753 123.368 31.9787 138.156 32.0253 152.95C32.0415 159.255 31.6991 165.501 30.9515 171.682C30.4085 176.158 29.0329 179.228 26.4355 179.44C19.0386 180.055 11.6275 180.645 4.27721 178.405C1.97973 177.699 1.0579 177.072 1.07816 170.844C1.14502 150.874 1.07208 130.9 0.912031 110.93C0.672963 82.0804 0.304232 53.2415 0.0104625 24.4027C-0.0523435 18.4732 0.160387 12.5983 0.845173 6.75263C1.30102 2.86277 2.5308 0.783078 4.58921 0.65196C8.08 0.429786 11.5748 0.586391 15.0717 0.586391L15.0758 4.03176e-06Z" fill="white"/>
<path d="M0.510742 24.3975C0.448097 18.4831 0.660095 12.6299 1.3418 6.81056C1.56622 4.89567 1.97647 3.48606 2.54395 2.55274C3.09843 1.64083 3.78599 1.20457 4.62109 1.15138C8.09101 0.930539 11.5443 1.08594 15.0713 1.08595H15.5684L15.5713 0.589854V0.558604C19.0838 0.948173 22.5879 1.32125 26.0918 1.75685H26.0928C27.5972 1.94109 29.001 2.77701 30.3789 4.40626C32.1701 6.52771 33.1779 9.21079 33.0713 13.2266C32.8945 19.8974 32.9055 26.5473 32.5635 33.1582C31.2559 58.2647 31.262 83.4267 31.335 108.571C31.3755 123.364 31.4778 138.165 31.5244 152.952C31.5405 159.238 31.2 165.463 30.4551 171.622C30.1867 173.834 29.7169 175.648 29.0244 176.921C28.3376 178.183 27.4692 178.854 26.3945 178.941L23.6191 179.165C17.1556 179.658 10.7618 179.858 4.42285 177.927L4.42187 177.928C3.28892 177.579 2.66978 177.295 2.25488 176.471C1.80046 175.568 1.56796 173.97 1.57812 170.846C1.64499 150.873 1.57217 130.897 1.41211 110.926C1.23281 89.2883 0.980054 67.6558 0.741211 46.0264L0.510742 24.3975ZM4.54102 10.7549C4.54821 10.9203 4.55043 11.1 4.55273 11.292C4.555 11.4807 4.5579 11.6811 4.56641 11.875C4.5824 12.2394 4.62051 12.6729 4.77539 12.999C4.97083 13.4123 5.20837 13.8557 5.47363 14.2324C5.728 14.5936 6.05571 14.9631 6.4541 15.1367H6.45605C11.699 17.3967 16.9483 19.6312 22.2148 21.7471L24.4736 22.6465C24.9321 22.8281 25.3803 22.93 25.7959 22.8691C26.2423 22.8036 26.5896 22.5598 26.8369 22.1836C27.0701 21.8288 27.2133 21.3607 27.3076 20.8174C27.3792 20.4047 27.4262 19.9238 27.4561 19.376L27.4805 18.8057C27.5463 16.6452 27.7163 14.3055 26.9199 11.9258L26.8252 11.6426L26.5303 11.5918C23.7218 11.1075 20.89 10.6178 18.0459 10.1279L9.48633 8.6631C8.66318 8.52425 7.81896 8.39629 6.96582 8.35841L6.95215 8.35743C6.66283 8.35223 6.39547 8.43075 6.18457 8.50196C5.94465 8.58298 5.79845 8.64537 5.62207 8.69044L5.61719 8.69142L5.4707 8.73927C5.14103 8.86835 4.89339 9.11758 4.73926 9.45021C4.59304 9.76574 4.53318 10.1477 4.53613 10.5723L4.54102 10.7549ZM3.38867 143.736C3.37864 145.843 3.45074 147.212 3.86133 148.199C4.29691 149.246 5.08309 149.808 6.24219 150.404H6.24316C10.5822 152.635 14.9375 154.79 19.2871 156.96C21.0243 157.835 22.8403 158.899 24.6807 159.575C24.9865 159.689 25.3086 159.705 25.6172 159.602C25.9224 159.499 26.1749 159.293 26.3721 159.03C26.71 158.58 26.9194 157.923 26.9971 157.121L27.0225 156.77C27.1455 154.258 27.0435 152.356 26.5742 150.944C26.0913 149.492 25.2198 148.563 23.8779 148.021C18.1047 145.681 12.5941 141.967 7.20703 137.462L7.20605 137.463C6.84223 137.158 6.39726 136.806 5.90039 136.647C5.35271 136.472 4.76885 136.538 4.20801 136.991L4.11133 137.069L4.0625 137.183L3.91016 137.572C3.58358 138.489 3.45478 139.464 3.40527 140.433C3.3494 141.526 3.39456 142.685 3.38867 143.736ZM4.12109 23.5664C4.03216 25.0238 4.04052 27.0734 4.08301 29.8369V29.8379C4.10648 31.1937 4.2076 32.4574 4.53906 33.5234C4.87475 34.603 5.45574 35.5076 6.44922 36.0947C12.6216 39.7486 18.7434 43.6212 25.499 47.7813L26.208 48.2178L26.2598 47.3867C26.519 43.2689 26.7057 40.3934 26.8779 37.5225V37.5215C26.9554 36.1966 26.8287 35.1165 26.4775 34.2383C26.1217 33.3484 25.5465 32.6946 24.7842 32.2119L24.7832 32.2109C19.7834 29.0726 14.7857 26.0541 9.89746 22.5332C8.71848 21.684 7.754 20.9598 7.00684 20.5586C6.63292 20.3578 6.25544 20.2041 5.89258 20.1807C5.49328 20.155 5.13134 20.2895 4.85352 20.6065C4.60244 20.8929 4.44818 21.2964 4.34277 21.7627C4.23526 22.2384 4.16555 22.838 4.12109 23.5664ZM3.75684 122.342C3.76188 124.529 3.88093 126.037 4.37109 127.141C4.88516 128.298 5.77493 128.95 7.10352 129.523C12.4651 131.839 17.7493 134.576 23.1074 137.143H23.1084C23.5871 137.371 24.0851 137.423 24.4863 137.459L24.4951 137.46C25.1482 137.507 25.5679 137.087 25.8076 136.633C26.0424 136.188 26.1681 135.611 26.2402 135.059L26.2412 135.056C26.5082 132.899 26.5052 131.165 26.1328 129.818C25.7523 128.443 24.984 127.475 23.7734 126.889C19.4536 124.785 15.3692 121.641 11.1543 118.658L11.1533 118.659C10.7172 118.349 10.2886 117.965 9.83691 117.545C9.39222 117.131 8.91979 116.676 8.42871 116.259C7.44395 115.422 6.29813 114.659 4.85547 114.522L4.37109 114.477L4.31152 114.96C4.08562 116.811 3.9092 117.908 3.83105 119.006V119.008C3.75682 120.116 3.75684 121.244 3.75684 122.341V122.342ZM3.99023 97.915C4.04789 99.3304 4.05368 101.213 4.22754 103.041V103.042C4.37359 104.558 4.86631 105.983 6.04297 106.532C11.981 109.301 17.9276 112.145 23.8896 114.835L23.8916 114.836C24.2677 115.004 24.6568 115.008 25 114.806C25.3107 114.623 25.511 114.312 25.6455 114.007C25.916 113.393 26.034 112.539 26.0742 111.746V111.743C26.1182 110.786 26.115 109.772 25.9473 108.882C25.781 108 25.4358 107.152 24.7197 106.636L24.7207 106.635C18.6563 102.252 12.7629 97.1856 7.04883 91.4522L7.04785 91.4512C6.73854 91.1416 6.3745 90.92 5.96777 90.9053C5.54096 90.8898 5.19327 91.1052 4.94238 91.4053C4.47028 91.9701 4.21383 92.9693 4.14258 94.1611V94.1621C4.07943 95.2607 4.04868 96.3787 3.99023 97.875L3.98926 97.8955L3.99023 97.915ZM4.05859 54.3838C4.01603 56.166 4.23635 57.5652 4.72461 58.6807C5.21765 59.807 5.97052 60.6126 6.93457 61.2246C12.3314 64.6456 17.6469 68.2968 23.0449 71.8057L23.0498 71.8086C23.4175 72.0422 23.8035 72.1115 24.1318 72.1426C24.2911 72.1576 24.4595 72.1652 24.5957 72.1738C24.7408 72.183 24.8668 72.1943 24.9834 72.2149L25.5186 72.3086L25.5684 71.7676C25.8003 69.2207 25.973 67.3007 26.0283 65.8008C26.0836 64.3027 26.024 63.1793 25.7686 62.2373C25.2492 60.3225 23.9374 59.2594 21.6738 57.2998H21.6729C18.003 54.1265 14.4857 50.504 10.833 47.085H10.832C10.452 46.7294 10.0812 46.3182 9.68262 45.8721C9.28875 45.4313 8.86907 44.9585 8.40918 44.5078C7.48439 43.6015 6.36962 42.7561 4.85645 42.3428L4.2334 42.1729L4.22461 42.8184C4.16577 47.1224 4.15168 50.752 4.05859 54.3828V54.3838ZM4.05273 74.5186C4.05021 76.2919 4.05132 77.652 4.11133 78.7207C4.17124 79.7875 4.29098 80.6072 4.54785 81.2861C5.07654 82.6832 6.14966 83.3719 7.91211 84.4805C11.004 86.433 14.1164 88.2732 17.2148 90.125C19.1406 91.2826 21.0984 92.5123 23.0898 93.4756L23.0957 93.4775C23.5367 93.684 24.0195 93.5682 24.3828 93.3828C24.7606 93.19 25.1139 92.8738 25.3623 92.501L25.3643 92.499C25.6893 92.0054 25.8713 91.2885 25.9639 90.54C26.0584 89.776 26.0671 88.9148 26.001 88.084C25.9349 87.2544 25.7929 86.4353 25.5781 85.7598C25.4708 85.4222 25.3414 85.1081 25.1865 84.8428C25.0532 84.6143 24.8873 84.3986 24.6797 84.2402L24.5889 84.1768C18.4465 80.2204 12.8275 74.3971 7.07812 68.7012V68.7002L7.07422 68.6963C6.80043 68.432 6.48318 68.3523 6.23633 68.3164C6.1214 68.2997 5.99296 68.2892 5.90723 68.2803C5.80979 68.2701 5.73599 68.2603 5.67285 68.2441L5.30957 68.1504L5.11914 68.4736C5.06363 68.5676 4.99616 68.6635 4.91602 68.7725C4.84046 68.8752 4.74592 68.9989 4.66211 69.1211C4.51372 69.3374 4.35434 69.6078 4.28613 69.9356L4.2627 70.0801C4.09532 71.5325 4.05883 73.049 4.05273 74.5176V74.5186ZM2.98437 166.27C2.98564 168.193 3.16919 169.484 3.69531 170.293C4.27231 171.18 5.17629 171.381 6.20801 171.392C6.72351 171.397 7.31106 171.355 7.95312 171.307C8.6016 171.258 9.3195 171.203 10.124 171.177C12.05 171.114 14.0386 171.125 16.0117 170.971L16.8564 170.894C16.8717 170.892 16.9071 170.893 16.9775 170.905C17.0557 170.919 17.1257 170.936 17.2402 170.96C17.4326 171.001 17.7429 171.062 18.0605 170.972C18.4161 170.871 18.6898 170.613 18.8789 170.217C19.0591 169.839 19.1765 169.31 19.2373 168.592L19.2598 168.326L19.0518 168.159C14.6816 164.657 10.2741 161.1 5.84766 157.603L5.8457 157.601C5.53779 157.36 5.1914 157.342 4.9248 157.345C4.62878 157.347 4.38976 157.374 4.03613 157.347L3.54199 157.309L3.49902 157.803C3.17409 161.586 2.9831 164.315 2.98437 166.27Z" stroke="black" stroke-opacity="0.46"/>
</svg>
